/* XPM */ 
static char * tplotpanel_xpm[] = {
"23 23 5 1",
"!	c None",
"#	c black",
"$	c white",
"%	c #C0C0C0",
"&	c #FF0000",
"!!!!!!!!!!!!!!!!!!!!!!!",
"!!!!!!!!!!!!!!!!!!!!!!!",
"#######################",
"#$$$$$$$$$$%$$$$$$$$$$#",
"#$$$$$$$$$$%$$$$$$$$$$#",
"#$$$$$$$$$$%$$$$$$$$$$#",
"#$$$$$$$$$$%$$$$$$$$$&#",
"#$$$$$$$$$$%$$$$$$$$&$#",
"#$$$$$&&&$$%$$$$$$$$&$#",
"#$$$$&$$$&$%$$$$$$$&$$#",
"#$$$&$$$$$&%$$$$$$&$$$#",
"#%%&%%%%%%%&&%%%%&%%%%#",
"#$$&$$$$$$$%$&$$$&$$$$#",
"#$&$$$$$$$$%$$&&&$$$$$#",
"#$&$$$$$$$$%$$$$$$$$$$#",
"#&$$$$$$$$$%$$$$$$$$$$#",
"#&$$$$$$$$$%$$$$$$$$$$#",
"#$$$$$$$$$$%$$$$$$$$$$#",
"#$$$$$$$$$$%$$$$$$$$$$#",
"#$$$$$$$$$$%$$$$$$$$$$#",
"#######################",
"!!!!!!!!!!!!!!!!!!!!!!!",
"!!!!!!!!!!!!!!!!!!!!!!!"};
